<?xml version="1.0" encoding="UTF-8" standalone="no"?>
<!-- Created with Inkscape (http://www.inkscape.org/) -->

<svg
   width="16"
   height="16"
   viewBox="0 0 4.2333333 4.2333333"
   version="1.1"
   id="svg5"
   inkscape:version="1.1 (c68e22c387, 2021-05-23)"
   sodipodi:docname="colormate-16-final.svg"
   inkscape:export-filename="/home/adithyankv/art/icons/colormate-32-final.png"
   inkscape:export-xdpi="96.000023"
   inkscape:export-ydpi="96.000023"
   xmlns:inkscape="http://www.inkscape.org/namespaces/inkscape"
   xmlns:sodipodi="http://sodipodi.sourceforge.net/DTD/sodipodi-0.dtd"
   xmlns:xlink="http://www.w3.org/1999/xlink"
   xmlns="http://www.w3.org/2000/svg"
   xmlns:svg="http://www.w3.org/2000/svg">
  <sodipodi:namedview
     id="namedview7"
     pagecolor="#505050"
     bordercolor="#eeeeee"
     borderopacity="1"
     inkscape:pageshadow="0"
     inkscape:pageopacity="0"
     inkscape:pagecheckerboard="0"
     inkscape:document-units="mm"
     showgrid="true"
     units="px"
     width="64px"
     inkscape:snap-object-midpoints="true"
     inkscape:snap-text-baseline="false"
     inkscape:snap-center="true"
     inkscape:zoom="45.254834"
     inkscape:cx="12.065009"
     inkscape:cy="8.3416503"
     inkscape:window-width="1920"
     inkscape:window-height="1019"
     inkscape:window-x="0"
     inkscape:window-y="30"
     inkscape:window-maximized="1"
     inkscape:current-layer="layer1"
     inkscape:snap-global="true"
     inkscape:snap-smooth-nodes="true">
    <inkscape:grid
       type="xygrid"
       id="grid824"
       spacingx="0.13229167"
       spacingy="0.13229167"
       empspacing="2"
       dotted="true" />
  </sodipodi:namedview>
  <defs
     id="defs2">
    <linearGradient
       inkscape:collect="always"
       id="linearGradient5190">
      <stop
         style="stop-color:#fafafa;stop-opacity:1;"
         offset="0"
         id="stop5186" />
      <stop
         style="stop-color:#fafafa;stop-opacity:0"
         offset="0.64437973"
         id="stop5642" />
      <stop
         style="stop-color:#fafafa;stop-opacity:0.40000001"
         offset="1"
         id="stop5188" />
    </linearGradient>
    <linearGradient
       inkscape:collect="always"
       id="linearGradient1325">
      <stop
         style="stop-color:#fafafa;stop-opacity:1;"
         offset="0"
         id="stop1321" />
      <stop
         style="stop-color:#fafafa;stop-opacity:0.00128161"
         offset="0.67285746"
         id="stop1619" />
      <stop
         style="stop-color:#fafafa;stop-opacity:0.30000001"
         offset="1"
         id="stop1323" />
    </linearGradient>
    <linearGradient
       inkscape:collect="always"
       xlink:href="#linearGradient1325"
       id="linearGradient1327"
       x1="4.2333336"
       y1="0.5291667"
       x2="4.2333336"
       y2="8.0697918"
       gradientUnits="userSpaceOnUse" />
    <linearGradient
       inkscape:collect="always"
       xlink:href="#linearGradient5190"
       id="linearGradient5192"
       x1="4.2333336"
       y1="0.5291667"
       x2="4.2333336"
       y2="7.9375"
       gradientUnits="userSpaceOnUse"
       gradientTransform="matrix(0.4598948,0,0,0.4598948,0.1697789,0.16977792)" />
  </defs>
  <g
     inkscape:label="Layer 1"
     inkscape:groupmode="layer"
     id="layer1"
     style="display:inline">
    <path
       id="ellipse11418"
       style="display:inline;fill:#c6262e;stroke:none;stroke-width:0.999999;stroke-linecap:round;stroke-opacity:0.5"
       d="M 8 8 L 4.5 1.9375 A 7.0000004 6.9999986 0 0 0 1.9375 4.5 L 8 8 z "
       transform="scale(0.26458333)" />
    <path
       id="path11801"
       style="display:inline;fill:#a10705;stroke:none;stroke-width:0.999999;stroke-linecap:round;stroke-opacity:0.5"
       d="M 8 8 L 1.9375 4.5 A 7.0000004 6.9999986 0 0 0 1 8 L 8 8 z "
       transform="scale(0.26458333)" />
    <path
       id="path11799"
       style="display:inline;fill:#f37329;stroke:none;stroke-width:0.999999;stroke-linecap:round;stroke-opacity:0.5"
       d="M 8 8 L 1 8 A 7.0000004 6.9999986 0 0 0 1.9375 11.5 L 8 8 z "
       transform="scale(0.26458333)" />
    <path
       id="path11797"
       style="display:inline;fill:#ad5f00;stroke:none;stroke-width:0.999999;stroke-linecap:round;stroke-opacity:0.5"
       d="M 8 8 L 1.9375 11.5 A 7.0000004 6.9999986 0 0 0 4.5 14.0625 L 8 8 z "
       transform="scale(0.26458333)" />
    <path
       id="path11795"
       style="display:inline;fill:#d48e15;stroke:none;stroke-width:0.999999;stroke-linecap:round;stroke-opacity:0.5"
       d="M 8 8 L 4.5 14.0625 A 7.0000004 6.9999986 0 0 0 8 15 L 8 8 z "
       transform="scale(0.26458333)" />
    <path
       id="path11793"
       style="display:inline;fill:#0e9a83;stroke:none;stroke-width:0.999999;stroke-linecap:round;stroke-opacity:0.5;fill-opacity:1.0"
       d="M 8 8 L 8 15 A 7.0000004 6.9999986 0 0 0 11.5 14.0625 L 8 8 z "
       transform="scale(0.26458333)" />
    <path
       id="path11791"
       style="display:inline;fill:#28bca3;stroke:none;stroke-width:0.999999;stroke-linecap:round;stroke-opacity:0.5;fill-opacity:1.0"
       d="M 8 8 L 11.5 14.0625 A 7.0000004 6.9999986 0 0 0 14.0625 11.5 L 8 8 z "
       transform="scale(0.26458333)" />
    <path
       id="path11789"
       style="display:inline;fill:#64baff;stroke:none;stroke-width:0.999999;stroke-linecap:round;stroke-opacity:0.5"
       d="M 8 8 L 14.0625 11.5 A 7.0000004 6.9999986 0 0 0 15 8 L 8 8 z "
       transform="scale(0.26458333)" />
    <path
       id="path11787"
       style="display:inline;fill:#3689e6;stroke:none;stroke-width:0.999999;stroke-linecap:round;stroke-opacity:0.5"
       d="M 8 8 L 15 8 A 7.0000004 6.9999986 0 0 0 14.0625 4.5 L 8 8 z "
       transform="scale(0.26458333)" />
    <path
       id="path11785"
       style="display:inline;fill:#ad65d6;stroke:none;stroke-width:0.999999;stroke-linecap:round;stroke-opacity:0.5"
       d="M 8 8 L 14.0625 4.5 A 7.0000004 6.9999986 0 0 0 11.5 1.9375 L 8 8 z "
       transform="scale(0.26458333)" />
    <path
       id="path11783"
       style="display:inline;fill:#ed5353;stroke:none;stroke-width:0.999999;stroke-linecap:round;stroke-opacity:0.5"
       d="M 8 1 A 7.0000004 6.9999986 0 0 0 4.5 1.9375 L 8 8 L 8 1 z "
       transform="scale(0.26458333)" />
    <path
       id="path11781"
       style="display:inline;fill:#de3e80;stroke:none;stroke-width:0.999999;stroke-linecap:round;stroke-opacity:0.5;fill-opacity:1.0"
       d="M 8 1 L 8 8 L 11.5 1.9375 A 7.0000004 6.9999986 0 0 0 8 1 z "
       transform="scale(0.26458333)" />
    <ellipse
       style="fill:none;fill-opacity:1;stroke:#fafafa;stroke-width:0.264583;stroke-linecap:round;stroke-opacity:0.5"
       id="path1281"
       cx="8.4666662"
       cy="0.85989583"
       rx="1.8799776e-15"
       ry="0.06614583" />
    <ellipse
       style="display:inline;fill:none;stroke:#000000;stroke-width:0.264583;stroke-linecap:round;stroke-opacity:0.5"
       id="circle1080"
       cx="2.1166668"
       cy="2.1166663"
       rx="1.9843751"
       ry="1.9843746" />
    <ellipse
       style="display:inline;fill:none;stroke:url(#linearGradient5192);stroke-width:0.264583;stroke-linecap:round;stroke-opacity:0.5"
       id="circle5096"
       cx="2.1166668"
       cy="2.1166658"
       rx="1.7197918"
       ry="1.7197908" />
    <path
       id="ellipse12168"
       style="color:#000000;fill:#fafafa;stroke-width:3.77953;stroke-linecap:round;-inkscape-stroke:none"
       d="m 8.0019531,2.9960938 c -0.9088413,0 -1.7626162,0.2483775 -2.5,0.6777343 L 6.4980469,5.3964844 C 6.9395535,5.1425181 7.452265,4.9980469 8.0019531,4.9980469 9.6699986,4.9980469 10.997009,6.3322173 10.998047,8 l -1.9980467,3e-7 L 12,11 15.000001,8.0000003 13,8 C 12.998936,5.2513095 10.750879,2.9960937 8.0019531,2.9960938 Z"
       transform="scale(0.26458333)"
       sodipodi:nodetypes="sccscccccs" />
    <path
       id="path13623"
       style="color:#000000;fill:#fafafa;stroke-width:1;stroke-linecap:round;-inkscape-stroke:none"
       d="m 2.11615,3.440617 c 0.2404643,0 0.4663589,-0.065717 0.6614584,-0.1793172 L 2.5140586,2.8055136 c -0.1168153,0.067195 -0.2524703,0.10542 -0.3979086,0.10542 -0.441337,0 -0.7924418,-0.3529993 -0.7927165,-0.7942668 l 0.5286499,-10e-8 -0.7937499,-0.7937499 -0.79375028,0.7937499 0.52916693,10e-8 C 0.79403166,2.8439245 1.3888301,3.440617 2.11615,3.440617 Z"
       sodipodi:nodetypes="sccscccccs"
       inkscape:transform-center-x="0.5955709"
       inkscape:transform-center-y="0.26510017" />
  </g>
  <g
     inkscape:groupmode="layer"
     id="layer2"
     inkscape:label="arrow"
     style="display:inline">
    <circle
       style="fill:none;stroke:url(#linearGradient1327);stroke-width:0.264583;stroke-linecap:round;stroke-opacity:0.5"
       id="ellipse3231"
       cx="4.2333331"
       cy="4.2333331"
       r="0" />
  </g>
</svg>
