<?xml version="1.0" encoding="UTF-8" standalone="no"?>
<!-- Created with Inkscape (http://www.inkscape.org/) -->

<svg
   width="24"
   height="24"
   viewBox="0 0 6.35 6.35"
   version="1.1"
   id="svg5"
   inkscape:version="1.1 (c68e22c387, 2021-05-23)"
   sodipodi:docname="colormate-24-final.svg"
   xmlns:inkscape="http://www.inkscape.org/namespaces/inkscape"
   xmlns:sodipodi="http://sodipodi.sourceforge.net/DTD/sodipodi-0.dtd"
   xmlns:xlink="http://www.w3.org/1999/xlink"
   xmlns="http://www.w3.org/2000/svg"
   xmlns:svg="http://www.w3.org/2000/svg">
  <sodipodi:namedview
     id="namedview7"
     pagecolor="#505050"
     bordercolor="#eeeeee"
     borderopacity="1"
     inkscape:pageshadow="0"
     inkscape:pageopacity="0"
     inkscape:pagecheckerboard="0"
     inkscape:document-units="mm"
     showgrid="true"
     units="px"
     width="64px"
     inkscape:snap-object-midpoints="true"
     inkscape:snap-text-baseline="false"
     inkscape:snap-center="true"
     inkscape:zoom="32"
     inkscape:cx="16.5"
     inkscape:cy="15.578125"
     inkscape:window-width="1920"
     inkscape:window-height="1019"
     inkscape:window-x="0"
     inkscape:window-y="30"
     inkscape:window-maximized="1"
     inkscape:current-layer="layer1"
     inkscape:snap-global="true"
     inkscape:snap-smooth-nodes="true">
    <inkscape:grid
       type="xygrid"
       id="grid824"
       spacingx="0.13229167"
       spacingy="0.13229167"
       empspacing="2"
       dotted="true" />
  </sodipodi:namedview>
  <defs
     id="defs2">
    <linearGradient
       inkscape:collect="always"
       id="linearGradient5190">
      <stop
         style="stop-color:#fafafa;stop-opacity:1;"
         offset="0"
         id="stop5186" />
      <stop
         style="stop-color:#fafafa;stop-opacity:0"
         offset="0.64437973"
         id="stop5642" />
      <stop
         style="stop-color:#fafafa;stop-opacity:0.40000001"
         offset="1"
         id="stop5188" />
    </linearGradient>
    <linearGradient
       inkscape:collect="always"
       id="linearGradient1325">
      <stop
         style="stop-color:#fafafa;stop-opacity:1;"
         offset="0"
         id="stop1321" />
      <stop
         style="stop-color:#fafafa;stop-opacity:0.00128161"
         offset="0.67285746"
         id="stop1619" />
      <stop
         style="stop-color:#fafafa;stop-opacity:0.30000001"
         offset="1"
         id="stop1323" />
    </linearGradient>
    <linearGradient
       inkscape:collect="always"
       xlink:href="#linearGradient1325"
       id="linearGradient1327"
       x1="4.2333336"
       y1="0.5291667"
       x2="4.2333336"
       y2="8.0697918"
       gradientUnits="userSpaceOnUse" />
    <linearGradient
       inkscape:collect="always"
       xlink:href="#linearGradient5190"
       id="linearGradient5192"
       x1="4.2333336"
       y1="0.5291667"
       x2="4.2333336"
       y2="7.9375"
       gradientUnits="userSpaceOnUse"
       gradientTransform="matrix(0.7241377,0,0,0.7241377,0.10948419,0.10948419)" />
  </defs>
  <g
     inkscape:label="Layer 1"
     inkscape:groupmode="layer"
     id="layer1"
     style="display:inline">
    <ellipse
       style="fill:none;fill-opacity:1;stroke:#fafafa;stroke-width:0.264583;stroke-linecap:round;stroke-opacity:0.5"
       id="path1281"
       cx="8.4666662"
       cy="0.85989583"
       rx="1.8799776e-15"
       ry="0.06614583" />
    <ellipse
       style="fill:#000000;fill-opacity:0.1;stroke:none;stroke-width:0.264583;stroke-linecap:round;stroke-opacity:0.5"
       id="path2407"
       cx="3.1088543"
       cy="6.0854168"
       rx="2.0505209"
       ry="0.19843742" />
    <circle
       style="display:inline;fill:none;stroke:#000000;stroke-width:0.264583;stroke-linecap:round;stroke-opacity:0.5"
       id="circle1080"
       cx="3.1750002"
       cy="3.1750011"
       r="2.7781241" />
    <path
       id="circle7947"
       style="display:inline;fill:#c6262e;stroke:none;stroke-width:0.999999;stroke-linecap:round;stroke-opacity:0.5"
       d="M 12 12 L 7 3.3398438 A 10.000001 10.000004 0 0 0 3.3398438 7 L 12 12 z "
       transform="scale(0.26458333)" />
    <path
       id="path8364"
       style="display:inline;fill:#a10705;stroke:none;stroke-width:0.999999;stroke-linecap:round;stroke-opacity:0.5"
       d="M 12 12 L 3.3398438 7 A 10.000001 10.000004 0 0 0 2 12 L 12 12 z "
       transform="scale(0.26458333)" />
    <path
       id="path8362"
       style="display:inline;fill:#f37329;stroke:none;stroke-width:0.999999;stroke-linecap:round;stroke-opacity:0.5"
       d="M 12 12 L 2 12 A 10.000001 10.000004 0 0 0 3.3398438 17 L 12 12 z "
       transform="scale(0.26458333)" />
    <path
       id="path8360"
       style="display:inline;fill:#ffe16b;stroke:none;stroke-width:0.999999;stroke-linecap:round;stroke-opacity:0.5"
       d="M 12 12 L 3.3398438 17 A 10.000001 10.000004 0 0 0 7 20.660156 L 12 12 z "
       transform="scale(0.26458333)" />
    <path
       id="path8358"
       style="display:inline;fill:#f9c440;stroke:none;stroke-width:0.999999;stroke-linecap:round;stroke-opacity:0.5"
       d="M 12 12 L 7 20.660156 A 10.000001 10.000004 0 0 0 12 22 L 12 12 z "
       transform="scale(0.26458333)" />
    <path
       id="path8356"
       style="display:inline;fill:#28bca3;stroke:none;stroke-width:0.999999;stroke-linecap:round;stroke-opacity:0.5;fill-opacity:1.0"
       d="M 12 12 L 12 22 A 10.000001 10.000004 0 0 0 17 20.660156 L 12 12 z "
       transform="scale(0.26458333)" />
    <path
       id="path8354"
       style="display:inline;fill:#0e9a83;stroke:none;stroke-width:0.999999;stroke-linecap:round;stroke-opacity:0.5;fill-opacity:1.0"
       d="M 12 12 L 17 20.660156 A 10.000001 10.000004 0 0 0 20.660156 17 L 12 12 z "
       transform="scale(0.26458333)" />
    <path
       id="path8352"
       style="display:inline;fill:#64baff;stroke:none;stroke-width:0.999999;stroke-linecap:round;stroke-opacity:0.5"
       d="M 12 12 L 20.660156 17 A 10.000001 10.000004 0 0 0 22 12 L 12 12 z "
       transform="scale(0.26458333)" />
    <path
       id="path8350"
       style="display:inline;fill:#3689e6;stroke:none;stroke-width:0.999999;stroke-linecap:round;stroke-opacity:0.5"
       d="M 12 12 L 22 12 A 10.000001 10.000004 0 0 0 20.660156 7 L 12 12 z "
       transform="scale(0.26458333)" />
    <path
       id="path8348"
       style="display:inline;fill:#ad65d6;stroke:none;stroke-width:0.999999;stroke-linecap:round;stroke-opacity:0.5"
       d="M 12 12 L 20.660156 7 A 10.000001 10.000004 0 0 0 17 3.3398438 L 12 12 z "
       transform="scale(0.26458333)" />
    <path
       id="path8346"
       style="display:inline;fill:#ed5353;stroke:none;stroke-width:0.999999;stroke-linecap:round;stroke-opacity:0.5"
       d="M 12 2 A 10.000001 10.000004 0 0 0 7 3.3398438 L 12 12 L 12 2 z "
       transform="scale(0.26458333)" />
    <path
       id="path8344"
       style="display:inline;fill:#de3e80;stroke:none;stroke-width:0.999999;stroke-linecap:round;stroke-opacity:0.5;fill-opacity:1.0"
       d="M 12 2 L 12 12 L 17 3.3398438 A 10.000001 10.000004 0 0 0 12 2 z "
       transform="scale(0.26458333)" />
    <circle
       style="display:inline;fill:none;stroke:url(#linearGradient5192);stroke-width:0.264583;stroke-linecap:round;stroke-opacity:0.5"
       id="circle5096"
       cx="3.1750002"
       cy="3.1750002"
       r="2.5135419" />
    <g
       id="g10073"
       inkscape:transform-center-x="-0.7281208"
       inkscape:transform-center-y="-0.52942516">
      <path
         id="path9935"
         style="color:#000000;fill:none;stroke:#0e141f;stroke-width:1;stroke-linecap:round;stroke-miterlimit:4;stroke-dasharray:none;stroke-opacity:0.7"
         d="m 12.003906,4.9980469 c -1.273154,0 -2.4689088,0.345499 -3.4999998,0.9453125 L 9.4980469,7.6679688 C 10.234023,7.242484 11.088955,6.9980469 12.003906,6.9980469 14.775878,6.9980469 16.997927,9.2285301 17,12 h -2 l 3,3 3,-3 H 19.001953 C 18.999842,8.14762 15.856757,4.9980469 12.003906,4.9980469 Z"
         transform="scale(0.26458333)" />
      <path
         id="circle8847"
         style="color:#000000;fill:#fafafa;stroke:#0e141f;stroke-width:0;stroke-linecap:round;stroke-miterlimit:4;stroke-dasharray:none"
         d="m 12.003906,4.9980469 c -1.273154,0 -2.4689088,0.345499 -3.4999998,0.9453125 L 9.4980469,7.6679688 C 10.234023,7.242484 11.088955,6.9980469 12.003906,6.9980469 14.775878,6.9980469 16.997927,9.2285301 17,12 h -2 l 3,3 3,-3 H 19.001953 C 18.999842,8.14762 15.856757,4.9980469 12.003906,4.9980469 Z"
         transform="scale(0.26458333)" />
    </g>
    <g
       id="g10079"
       inkscape:transform-center-x="0.72812075"
       inkscape:transform-center-y="0.5294252"
       transform="rotate(180,3.1750001,3.1750001)">
      <path
         id="path10075"
         style="color:#000000;fill:none;stroke:#0e141f;stroke-width:1;stroke-linecap:round;stroke-miterlimit:4;stroke-dasharray:none;stroke-opacity:0.7"
         d="m 12.003906,4.9980469 c -1.273154,0 -2.4689088,0.345499 -3.4999998,0.9453125 L 9.4980469,7.6679688 C 10.234023,7.242484 11.088955,6.9980469 12.003906,6.9980469 14.775878,6.9980469 16.997927,9.2285301 17,12 h -2 l 3,3 3,-3 H 19.001953 C 18.999842,8.14762 15.856757,4.9980469 12.003906,4.9980469 Z"
         transform="scale(0.26458333)" />
      <path
         id="path10077"
         style="color:#000000;fill:#fafafa;stroke:#0e141f;stroke-width:0;stroke-linecap:round;stroke-miterlimit:4;stroke-dasharray:none"
         d="m 12.003906,4.9980469 c -1.273154,0 -2.4689088,0.345499 -3.4999998,0.9453125 L 9.4980469,7.6679688 C 10.234023,7.242484 11.088955,6.9980469 12.003906,6.9980469 14.775878,6.9980469 16.997927,9.2285301 17,12 h -2 l 3,3 3,-3 H 19.001953 C 18.999842,8.14762 15.856757,4.9980469 12.003906,4.9980469 Z"
         transform="scale(0.26458333)" />
    </g>
    <ellipse
       style="fill:#000000;fill-opacity:0.1;stroke:none;stroke-width:0.264583;stroke-linecap:round;stroke-opacity:0.5"
       id="ellipse2511"
       cx="3.1088543"
       cy="6.0854168"
       rx="0.9921875"
       ry="0.19843742" />
  </g>
  <g
     inkscape:groupmode="layer"
     id="layer2"
     inkscape:label="arrow"
     style="display:inline">
    <circle
       style="fill:none;stroke:url(#linearGradient1327);stroke-width:0.264583;stroke-linecap:round;stroke-opacity:0.5"
       id="ellipse3231"
       cx="4.2333331"
       cy="4.2333331"
       r="0" />
  </g>
</svg>
