<?xml version="1.0" encoding="UTF-8" standalone="no"?>
<!-- Created with Inkscape (http://www.inkscape.org/) -->

<svg
   width="32"
   height="32"
   viewBox="0 0 8.4666667 8.4666667"
   version="1.1"
   id="svg5"
   inkscape:version="1.1 (c68e22c387, 2021-05-23)"
   sodipodi:docname="colormate-32-final.svg"
   xmlns:inkscape="http://www.inkscape.org/namespaces/inkscape"
   xmlns:sodipodi="http://sodipodi.sourceforge.net/DTD/sodipodi-0.dtd"
   xmlns:xlink="http://www.w3.org/1999/xlink"
   xmlns="http://www.w3.org/2000/svg"
   xmlns:svg="http://www.w3.org/2000/svg">
  <sodipodi:namedview
     id="namedview7"
     pagecolor="#505050"
     bordercolor="#eeeeee"
     borderopacity="1"
     inkscape:pageshadow="0"
     inkscape:pageopacity="0"
     inkscape:pagecheckerboard="0"
     inkscape:document-units="mm"
     showgrid="true"
     units="px"
     width="64px"
     inkscape:snap-object-midpoints="true"
     inkscape:snap-text-baseline="false"
     inkscape:snap-center="true"
     inkscape:zoom="8"
     inkscape:cx="21.375"
     inkscape:cy="21.3125"
     inkscape:window-width="1920"
     inkscape:window-height="1019"
     inkscape:window-x="0"
     inkscape:window-y="30"
     inkscape:window-maximized="1"
     inkscape:current-layer="layer1"
     inkscape:snap-global="true"
     inkscape:snap-smooth-nodes="true">
    <inkscape:grid
       type="xygrid"
       id="grid824"
       spacingx="0.13229167"
       spacingy="0.13229167"
       empspacing="2"
       dotted="true" />
  </sodipodi:namedview>
  <defs
     id="defs2">
    <linearGradient
       inkscape:collect="always"
       id="linearGradient5190">
      <stop
         style="stop-color:#fafafa;stop-opacity:1;"
         offset="0"
         id="stop5186" />
      <stop
         style="stop-color:#fafafa;stop-opacity:0"
         offset="0.64437973"
         id="stop5642" />
      <stop
         style="stop-color:#fafafa;stop-opacity:0.40000001"
         offset="1"
         id="stop5188" />
    </linearGradient>
    <linearGradient
       inkscape:collect="always"
       id="linearGradient1325">
      <stop
         style="stop-color:#fafafa;stop-opacity:1;"
         offset="0"
         id="stop1321" />
      <stop
         style="stop-color:#fafafa;stop-opacity:0.00128161"
         offset="0.67285746"
         id="stop1619" />
      <stop
         style="stop-color:#fafafa;stop-opacity:0.30000001"
         offset="1"
         id="stop1323" />
    </linearGradient>
    <linearGradient
       inkscape:collect="always"
       xlink:href="#linearGradient1325"
       id="linearGradient1327"
       x1="4.2333336"
       y1="0.5291667"
       x2="4.2333336"
       y2="8.0697918"
       gradientUnits="userSpaceOnUse" />
    <linearGradient
       inkscape:collect="always"
       xlink:href="#linearGradient5190"
       id="linearGradient5192"
       x1="4.2333336"
       y1="0.5291667"
       x2="4.2333336"
       y2="7.9375"
       gradientUnits="userSpaceOnUse" />
  </defs>
  <g
     inkscape:label="Layer 1"
     inkscape:groupmode="layer"
     id="layer1"
     style="display:inline">
    <ellipse
       style="fill:#0e141f;fill-opacity:0.1;stroke:none;stroke-width:0.396875;stroke-linecap:round;stroke-miterlimit:4;stroke-dasharray:none;stroke-opacity:0.4"
       id="ellipse6050"
       cx="4.2333331"
       cy="8.0697918"
       rx="3.4395835"
       ry="0.13229166" />
    <ellipse
       style="fill:#0e141f;fill-opacity:0.1;stroke:none;stroke-width:0.396875;stroke-linecap:round;stroke-miterlimit:4;stroke-dasharray:none;stroke-opacity:0.4"
       id="path5906"
       cx="4.299479"
       cy="8.0697918"
       rx="2.4473958"
       ry="0.13229166" />
    <path
       id="path2192"
       style="display:inline;fill:#a10705;stroke:none;stroke-width:0.999999;stroke-linecap:round;stroke-opacity:0.5"
       d="M 16,16 3.0195312,8.5039062 A 15,15 0 0 0 1,16 Z"
       transform="scale(0.26458333)" />
    <ellipse
       style="fill:none;fill-opacity:1;stroke:#fafafa;stroke-width:0.264583;stroke-linecap:round;stroke-opacity:0.5"
       id="path1281"
       cx="8.4666662"
       cy="0.85989583"
       rx="1.8799776e-15"
       ry="0.06614583" />
    <path
       id="path954"
       style="display:inline;fill:#c6262e;stroke:none;stroke-width:0.999999;stroke-linecap:round;stroke-opacity:0.5"
       d="M 16,16 8.5039062,3.0195312 a 15,15 0 0 0 -5.484375,5.484375 z"
       transform="scale(0.26458333)" />
    <path
       id="path2190"
       style="display:inline;fill:#f37329;stroke:none;stroke-width:0.999999;stroke-linecap:round;stroke-opacity:0.5"
       d="M 16,16 H 1 a 15,15 0 0 0 2.0195312,7.496094 z"
       transform="scale(0.26458333)" />
    <path
       id="path2188"
       style="display:inline;fill:#ffe16b;stroke:none;stroke-width:0.999999;stroke-linecap:round;stroke-opacity:0.5"
       d="M 16,16 3.0195312,23.496094 a 15,15 0 0 0 5.484375,5.484375 z"
       transform="scale(0.26458333)" />
    <path
       id="path2186"
       style="display:inline;fill:#f9c440;stroke:none;stroke-width:0.999999;stroke-linecap:round;stroke-opacity:0.5"
       d="M 16,16 8.5039062,28.980469 A 15,15 0 0 0 16,31 Z"
       transform="scale(0.26458333)" />
    <path
       id="path2184"
       style="display:inline;fill:#28bca3;fill-opacity:1;stroke:none;stroke-width:0.999999;stroke-linecap:round;stroke-opacity:0.5"
       d="m 16,16 v 15 a 15,15 0 0 0 7.496094,-2.019531 z"
       transform="scale(0.26458333)" />
    <path
       id="path2182"
       style="display:inline;fill:#0e9a83;fill-opacity:1;stroke:none;stroke-width:0.999999;stroke-linecap:round;stroke-opacity:0.5"
       d="m 16,16 7.496094,12.980469 a 15,15 0 0 0 5.484375,-5.484375 z"
       transform="scale(0.26458333)" />
    <path
       id="path2180"
       style="display:inline;fill:#64baff;stroke:none;stroke-width:0.999999;stroke-linecap:round;stroke-opacity:0.5"
       d="m 16,16 12.980469,7.496094 A 15,15 0 0 0 31,16 Z"
       transform="scale(0.26458333)" />
    <path
       id="path2178"
       style="display:inline;fill:#3689e6;stroke:none;stroke-width:0.999999;stroke-linecap:round;stroke-opacity:0.5"
       d="M 16,16 H 31 A 15,15 0 0 0 28.990234,8.5 Z"
       transform="scale(0.26458333)" />
    <path
       id="path2176"
       style="display:inline;fill:#ad65d6;stroke:none;stroke-width:0.999999;stroke-linecap:round;stroke-opacity:0.5"
       d="M 16,16 28.990234,8.5 A 15,15 0 0 0 23.5,3.0097656 Z"
       transform="scale(0.26458333)" />
    <path
       id="path2172"
       style="display:inline;fill:#de3e80;fill-opacity:1;stroke:none;stroke-width:0.999999;stroke-linecap:round;stroke-opacity:0.5"
       d="M 16,1 V 16 L 23.5,3.0097656 A 15,15 0 0 0 16,1 Z"
       transform="scale(0.26458333)" />
    <path
       id="path2174"
       style="display:inline;fill:#ed5353;stroke:none;stroke-width:0.999999;stroke-linecap:round;stroke-opacity:0.5"
       d="M 16,1 A 15,15 0 0 0 8.5039062,3.0195312 L 16,16 Z"
       transform="scale(0.26458333)" />
    <circle
       style="display:inline;fill:none;stroke:#000000;stroke-width:0.264583;stroke-linecap:round;stroke-opacity:0.5"
       id="circle1080"
       cx="4.2333331"
       cy="4.2333331"
       r="3.8364582" />
    <ellipse
       style="display:inline;fill:none;stroke:url(#linearGradient5192);stroke-width:0.264583;stroke-linecap:round;stroke-opacity:0.5"
       id="circle5096"
       cx="4.2333331"
       cy="4.2333331"
       rx="3.5718749"
       ry="3.5696211" />
  </g>
  <g
     inkscape:groupmode="layer"
     id="layer2"
     inkscape:label="arrow"
     style="display:inline">
    <g
       id="g5028"
       inkscape:transform-center-x="-0.36767766"
       inkscape:transform-center-y="-0.85937923">
      <path
         id="path4917"
         style="color:#000000;fill:#fafafa;fill-opacity:0.999289;stroke:#0e141f;stroke-width:1.5;stroke-linecap:round;stroke-miterlimit:4;stroke-dasharray:none;stroke-opacity:0.2"
         d="m 15.996094,6.5039062 c -3.506992,0 -6.5733852,1.9127416 -8.2167971,4.7480468 l 1.71875,0.992188 C 10.791893,10.00119 13.211248,8.4960937 15.996094,8.4960938 c 4.153975,0 7.5,3.3460252 7.5,7.5000002 V 16 c -0.628185,0 -1.485463,2e-6 -1.496094,0 l 2.5,3 2.5,-3 c 0,0 -0.874856,-10e-7 -1.503906,0 v -0.0039 c 0,-5.234855 -4.265146,-9.4921877 -9.5,-9.4921878 z"
         transform="scale(0.26458333)" />
      <path
         id="circle1223"
         style="color:#000000;fill:#fafafa;fill-opacity:0.999289;stroke:none;stroke-width:1;stroke-linecap:round;stroke-miterlimit:4;stroke-dasharray:none"
         d="m 15.996094,6.5039062 c -3.506992,0 -6.5733852,1.9127416 -8.2167971,4.7480468 l 1.71875,0.992188 C 10.791893,10.00119 13.211248,8.4960937 15.996094,8.4960938 c 4.153975,0 7.5,3.3460252 7.5,7.5000002 V 16 c -0.628185,0 -1.485463,2e-6 -1.496094,0 l 2.5,3 2.5,-3 c 0,0 -0.874856,-10e-7 -1.503906,0 v -0.0039 c 0,-5.234855 -4.265146,-9.4921877 -9.5,-9.4921878 z"
         transform="scale(0.26458333)" />
    </g>
    <circle
       style="fill:none;stroke:url(#linearGradient1327);stroke-width:0.264583;stroke-linecap:round;stroke-opacity:0.5"
       id="ellipse3231"
       cx="4.2333331"
       cy="4.2333331"
       r="0" />
    <g
       id="g5034"
       inkscape:transform-center-x="0.36767773"
       inkscape:transform-center-y="0.85937915"
       transform="rotate(180,4.2333334,4.2333334)">
      <path
         id="path5030"
         style="color:#000000;fill:#fafafa;fill-opacity:0.999289;stroke:#0e141f;stroke-width:1.5;stroke-linecap:round;stroke-miterlimit:4;stroke-dasharray:none;stroke-opacity:0.2"
         d="m 15.996094,6.5039062 c -3.506992,0 -6.5733852,1.9127416 -8.2167971,4.7480468 l 1.71875,0.992188 C 10.791893,10.00119 13.211248,8.4960937 15.996094,8.4960938 c 4.153975,0 7.5,3.3460252 7.5,7.5000002 V 16 c -0.628185,0 -1.485463,2e-6 -1.496094,0 l 2.5,3 2.5,-3 c 0,0 -0.874856,-10e-7 -1.503906,0 v -0.0039 c 0,-5.234855 -4.265146,-9.4921877 -9.5,-9.4921878 z"
         transform="scale(0.26458333)" />
      <path
         id="path5032"
         style="color:#000000;fill:#fafafa;fill-opacity:0.999289;stroke:none;stroke-width:1;stroke-linecap:round;stroke-miterlimit:4;stroke-dasharray:none"
         d="m 15.996094,6.5039062 c -3.506992,0 -6.5733852,1.9127416 -8.2167971,4.7480468 l 1.71875,0.992188 C 10.791893,10.00119 13.211248,8.4960937 15.996094,8.4960938 c 4.153975,0 7.5,3.3460252 7.5,7.5000002 V 16 c -0.628185,0 -1.485463,2e-6 -1.496094,0 l 2.5,3 2.5,-3 c 0,0 -0.874856,-10e-7 -1.503906,0 v -0.0039 c 0,-5.234855 -4.265146,-9.4921877 -9.5,-9.4921878 z"
         transform="scale(0.26458333)" />
    </g>
  </g>
</svg>
