<?xml version="1.0" encoding="UTF-8" standalone="no"?>
<!-- Created with Inkscape (http://www.inkscape.org/) -->

<svg
   width="48"
   height="48"
   viewBox="0 0 12.7 12.7"
   version="1.1"
   id="svg5"
   inkscape:version="1.1 (c68e22c387, 2021-05-23)"
   sodipodi:docname="colormate-48-final.svg"
   xmlns:inkscape="http://www.inkscape.org/namespaces/inkscape"
   xmlns:sodipodi="http://sodipodi.sourceforge.net/DTD/sodipodi-0.dtd"
   xmlns:xlink="http://www.w3.org/1999/xlink"
   xmlns="http://www.w3.org/2000/svg"
   xmlns:svg="http://www.w3.org/2000/svg">
  <sodipodi:namedview
     id="namedview7"
     pagecolor="#505050"
     bordercolor="#eeeeee"
     borderopacity="1"
     inkscape:pageshadow="0"
     inkscape:pageopacity="0"
     inkscape:pagecheckerboard="0"
     inkscape:document-units="mm"
     showgrid="true"
     units="px"
     width="64px"
     inkscape:snap-object-midpoints="true"
     inkscape:snap-text-baseline="false"
     inkscape:snap-center="true"
     inkscape:zoom="22.627418"
     inkscape:cx="22.008698"
     inkscape:cy="17.832348"
     inkscape:window-width="1920"
     inkscape:window-height="1019"
     inkscape:window-x="0"
     inkscape:window-y="30"
     inkscape:window-maximized="1"
     inkscape:current-layer="layer2"
     inkscape:snap-global="true"
     inkscape:snap-smooth-nodes="true">
    <inkscape:grid
       type="xygrid"
       id="grid824"
       spacingx="0.13229167"
       spacingy="0.13229167"
       empspacing="2"
       dotted="true" />
  </sodipodi:namedview>
  <defs
     id="defs2">
    <linearGradient
       inkscape:collect="always"
       id="linearGradient12158">
      <stop
         style="stop-color:#d4d4d4;stop-opacity:1"
         offset="0"
         id="stop12154" />
      <stop
         style="stop-color:#fafafa;stop-opacity:1"
         offset="1"
         id="stop12156" />
    </linearGradient>
    <linearGradient
       inkscape:collect="always"
       id="linearGradient1287">
      <stop
         style="stop-color:#fafafa;stop-opacity:1;"
         offset="0"
         id="stop1283" />
      <stop
         style="stop-color:#fafafa;stop-opacity:0"
         offset="0.70393354"
         id="stop1563" />
      <stop
         style="stop-color:#fafafa;stop-opacity:0.40000001"
         offset="1"
         id="stop1285" />
    </linearGradient>
    <linearGradient
       inkscape:collect="always"
       xlink:href="#linearGradient1287"
       id="linearGradient1289"
       x1="8.4666672"
       y1="0.79375005"
       x2="8.4666672"
       y2="16.139584"
       gradientUnits="userSpaceOnUse"
       gradientTransform="matrix(0.73333339,0,0,0.73333339,0.14111114,0.14111113)" />
    <linearGradient
       inkscape:collect="always"
       xlink:href="#linearGradient12158"
       id="linearGradient12160"
       x1="12.435417"
       y1="11.641667"
       x2="3.4395833"
       y2="7.9375"
       gradientUnits="userSpaceOnUse"
       gradientTransform="matrix(0.73333339,0,0,0.73333339,0.14111114,0.14111113)" />
    <linearGradient
       inkscape:collect="always"
       xlink:href="#linearGradient12158"
       id="linearGradient10539"
       gradientUnits="userSpaceOnUse"
       gradientTransform="matrix(-0.73333339,0,0,-0.73333339,12.558889,12.558889)"
       x1="12.435417"
       y1="11.641667"
       x2="3.4395833"
       y2="7.9375" />
  </defs>
  <g
     inkscape:groupmode="layer"
     id="layer4"
     inkscape:label="shadow">
    <ellipse
       style="fill:#000000;fill-opacity:0.05;stroke-width:0.264583;stroke-linecap:round;stroke-opacity:0.5"
       id="path1777"
       cx="6.5484376"
       cy="12.303124"
       rx="2.5796874"
       ry="0.26458246" />
    <ellipse
       style="fill:#000000;fill-opacity:0.05;stroke-width:0.264583;stroke-linecap:round;stroke-opacity:0.5"
       id="ellipse1859"
       cx="6.5484376"
       cy="12.303124"
       rx="3.5057294"
       ry="0.26458246" />
    <ellipse
       style="fill:#000000;fill-opacity:0.05;stroke-width:0.264583;stroke-linecap:round;stroke-opacity:0.5"
       id="ellipse1861"
       cx="6.5484376"
       cy="12.303124"
       rx="4.960938"
       ry="0.26458246" />
  </g>
  <g
     inkscape:label="Layer 1"
     inkscape:groupmode="layer"
     id="layer1">
    <path
       id="path848"
       style="fill:#c6262e;fill-opacity:1;stroke-width:0.264583;stroke-linecap:round;stroke-opacity:0.5"
       d="M 6.3500006,6.3500005 3.4395838,1.3090676 A 5.8208337,5.8208337 0 0 0 1.3090677,3.4395837 Z" />
    <path
       id="path2049"
       style="fill:#a10705;fill-opacity:1;stroke-width:0.264583;stroke-linecap:round;stroke-opacity:0.5"
       d="M 6.3500006,6.3500005 1.3090677,3.4395837 A 5.8208337,5.8208337 0 0 0 0.52916688,6.3500005 Z" />
    <path
       id="path2047"
       style="fill:#f37329;fill-opacity:1;stroke-width:0.264583;stroke-linecap:round;stroke-opacity:0.5"
       d="M 6.3500006,6.3500005 H 0.52916688 A 5.8208337,5.8208337 0 0 0 1.3090677,9.2604169 Z" />
    <path
       id="path2045"
       style="fill:#ffe16b;fill-opacity:1;stroke-width:0.264583;stroke-linecap:round;stroke-opacity:0.5"
       d="M 6.3500006,6.3500005 1.3090677,9.2604169 a 5.8208337,5.8208337 0 0 0 2.1305161,2.1305171 z" />
    <path
       id="path2043"
       style="fill:#f9c440;fill-opacity:1;stroke-width:0.264583;stroke-linecap:round;stroke-opacity:0.5"
       d="M 6.3500006,6.3500005 3.4395838,11.390934 a 5.8208337,5.8208337 0 0 0 2.9104168,0.7799 z" />
    <path
       id="path2041"
       style="fill:#43d6b5;fill-opacity:1;stroke-width:0.264583;stroke-linecap:round;stroke-opacity:0.5"
       d="m 6.3500006,6.3500005 v 5.8208335 a 5.8208337,5.8208337 0 0 0 2.910417,-0.7799 z" />
    <path
       id="path2039"
       style="fill:#0e9a83;fill-opacity:1;stroke-width:0.264583;stroke-linecap:round;stroke-opacity:0.5"
       d="m 6.3500006,6.3500005 2.910417,5.0409335 A 5.8208337,5.8208337 0 0 0 11.390934,9.2604169 Z" />
    <path
       id="path2037"
       style="fill:#64baff;fill-opacity:1;stroke-width:0.264583;stroke-linecap:round;stroke-opacity:0.5"
       d="M 6.3500006,6.3500005 11.390934,9.2604169 A 5.8208337,5.8208337 0 0 0 12.170835,6.3500005 Z" />
    <path
       id="path2035"
       style="fill:#3689e6;fill-opacity:1;stroke-width:0.264583;stroke-linecap:round;stroke-opacity:0.5"
       d="M 6.3500006,6.3500005 H 12.170835 A 5.8208337,5.8208337 0 0 0 11.390555,3.4395837 Z" />
    <path
       id="path2033"
       style="fill:#ad65d6;fill-opacity:1;stroke-width:0.264583;stroke-linecap:round;stroke-opacity:0.5"
       d="M 6.3500006,6.3500005 11.390555,3.4395837 A 5.8208337,5.8208337 0 0 0 9.2604176,1.3094466 Z" />
    <path
       id="path2031"
       style="fill:#ed5353;fill-opacity:1;stroke-width:0.264583;stroke-linecap:round;stroke-opacity:0.5"
       d="M 6.3500006,0.52916685 A 5.8208337,5.8208337 0 0 0 3.4395838,1.3090676 l 2.9104168,5.0409329 z" />
    <path
       id="path2029"
       style="fill:#de3e80;fill-opacity:1;stroke-width:0.264583;stroke-linecap:round;stroke-opacity:0.5"
       d="M 6.3500006,0.52916685 V 6.3500005 L 9.2604176,1.3094466 A 5.8208337,5.8208337 0 0 0 6.3500006,0.52916685 Z" />
    <ellipse
       style="fill:none;fill-opacity:1;stroke:#0e141f;stroke-width:0.264583;stroke-linecap:round;stroke-opacity:0.5"
       id="circle1069"
       cx="6.3500009"
       cy="6.3500004"
       rx="5.6885424"
       ry="5.6885419" />
    <ellipse
       style="fill:none;fill-opacity:1;stroke:url(#linearGradient1289);stroke-width:0.264583;stroke-linecap:round;stroke-opacity:0.5"
       id="circle1239"
       cx="6.3500009"
       cy="6.3500004"
       rx="5.4239593"
       ry="5.4239588" />
    <ellipse
       style="fill:none;fill-opacity:1;stroke:#fafafa;stroke-width:0.264583;stroke-linecap:round;stroke-opacity:0.5"
       id="path1281"
       cx="8.4666662"
       cy="0.85989583"
       rx="1.8799776e-15"
       ry="0.06614583" />
  </g>
  <g
     inkscape:groupmode="layer"
     id="layer2"
     inkscape:label="arrow">
    <path
       id="path10298"
       style="color:#000000;fill:none;fill-opacity:1;stroke:#000000;stroke-width:0.529167;stroke-linecap:round;stroke-miterlimit:4;stroke-dasharray:none;stroke-opacity:0.15"
       inkscape:transform-center-x="0.67530813"
       inkscape:transform-center-y="1.4550189"
       d="M 2.6458334,5.0270835 1.3229167,6.3500002 h 0.79375 c 0,2.3517417 1.8815923,4.3656248 4.2333335,4.3656248 1.5754253,0 2.9646875,-0.9741585 3.7041668,-2.2489581 L 9.1281252,7.9375002 C 8.5591164,8.9241057 7.575162,9.6572919 6.3500002,9.6572919 4.5225603,9.6572919 3.1750001,8.17744 3.1750001,6.3500002 h 0.79375 z"
       sodipodi:nodetypes="cccsccsccc" />
    <path
       id="circle10068"
       style="color:#000000;fill:url(#linearGradient12160);fill-opacity:1;stroke:#666666;stroke-width:0.264583;stroke-linecap:round;stroke-miterlimit:4;stroke-dasharray:none"
       inkscape:transform-center-x="0.67530813"
       inkscape:transform-center-y="1.4550189"
       d="M 2.6458334,5.0270835 1.3229167,6.3500002 h 0.79375 c 0,2.3517417 1.8815923,4.3656248 4.2333335,4.3656248 1.5754253,0 2.9646875,-0.9741585 3.7041668,-2.2489581 L 9.1281252,7.9375002 C 8.5591164,8.9241057 7.575162,9.6572919 6.3500002,9.6572919 4.5225603,9.6572919 3.1750001,8.17744 3.1750001,6.3500002 h 0.79375 z"
       sodipodi:nodetypes="cccsccsccc" />
    <path
       id="path10533"
       style="color:#000000;fill:none;fill-opacity:1;stroke:#000000;stroke-width:0.529167;stroke-linecap:round;stroke-miterlimit:4;stroke-dasharray:none;stroke-opacity:0.15"
       inkscape:transform-center-x="0.67530813"
       inkscape:transform-center-y="1.4550189"
       d="m 10.054167,7.6729169 1.322917,-1.3229167 h -0.79375 c 0,-2.3517417 -1.8815926,-4.3656248 -4.2333338,-4.3656248 -1.5754253,0 -2.9646875,0.9741585 -3.7041668,2.2489581 L 3.5718752,4.7625002 C 4.140884,3.7758947 5.1248384,3.0427085 6.3500002,3.0427085 c 1.8274399,0 3.1750001,1.4798519 3.1750001,3.3072917 h -0.79375 z"
       sodipodi:nodetypes="cccsccsccc" />
    <path
       id="path10535"
       style="color:#000000;fill:url(#linearGradient10539);fill-opacity:1;stroke:#666666;stroke-width:0.264583;stroke-linecap:round;stroke-miterlimit:4;stroke-dasharray:none"
       inkscape:transform-center-x="0.67530813"
       inkscape:transform-center-y="1.4550189"
       d="m 10.054167,7.6729169 1.322917,-1.3229167 h -0.79375 c 0,-2.3517417 -1.8815926,-4.3656248 -4.2333338,-4.3656248 -1.5754253,0 -2.9646875,0.9741585 -3.7041668,2.2489581 L 3.5718752,4.7625002 C 4.140884,3.7758947 5.1248384,3.0427085 6.3500002,3.0427085 c 1.8274399,0 3.175,1.4798519 3.175,3.3072917 h -0.79375 z"
       sodipodi:nodetypes="cccsccsccc" />
  </g>
</svg>
