<?xml version="1.0" encoding="UTF-8" standalone="no"?>
<!-- Created with Inkscape (http://www.inkscape.org/) -->

<svg
   width="64"
   height="64"
   viewBox="0 0 16.933333 16.933334"
   version="1.1"
   id="svg5"
   inkscape:version="1.1 (c68e22c387, 2021-05-23)"
   sodipodi:docname="colormate-64-final.svg"
   xmlns:inkscape="http://www.inkscape.org/namespaces/inkscape"
   xmlns:sodipodi="http://sodipodi.sourceforge.net/DTD/sodipodi-0.dtd"
   xmlns:xlink="http://www.w3.org/1999/xlink"
   xmlns="http://www.w3.org/2000/svg"
   xmlns:svg="http://www.w3.org/2000/svg">
  <sodipodi:namedview
     id="namedview7"
     pagecolor="#505050"
     bordercolor="#eeeeee"
     borderopacity="1"
     inkscape:pageshadow="0"
     inkscape:pageopacity="0"
     inkscape:pagecheckerboard="0"
     inkscape:document-units="mm"
     showgrid="true"
     units="px"
     width="64px"
     inkscape:snap-object-midpoints="true"
     inkscape:snap-text-baseline="false"
     inkscape:snap-center="true"
     inkscape:zoom="11.313709"
     inkscape:cx="40.835417"
     inkscape:cy="41.940271"
     inkscape:window-width="1920"
     inkscape:window-height="1019"
     inkscape:window-x="0"
     inkscape:window-y="30"
     inkscape:window-maximized="1"
     inkscape:current-layer="layer3"
     inkscape:snap-global="true">
    <inkscape:grid
       type="xygrid"
       id="grid824"
       spacingx="0.13229167"
       spacingy="0.13229167"
       empspacing="2"
       dotted="true" />
  </sodipodi:namedview>
  <defs
     id="defs2">
    <linearGradient
       inkscape:collect="always"
       id="linearGradient12471">
      <stop
         style="stop-color:#d4d4d4;stop-opacity:1"
         offset="0"
         id="stop12467" />
      <stop
         style="stop-color:#fafafa;stop-opacity:1"
         offset="1"
         id="stop12469" />
    </linearGradient>
    <linearGradient
       inkscape:collect="always"
       id="linearGradient12158">
      <stop
         style="stop-color:#d4d4d4;stop-opacity:1"
         offset="0"
         id="stop12154" />
      <stop
         style="stop-color:#fafafa;stop-opacity:1"
         offset="1"
         id="stop12156" />
    </linearGradient>
    <linearGradient
       inkscape:collect="always"
       id="linearGradient1287">
      <stop
         style="stop-color:#fafafa;stop-opacity:1;"
         offset="0"
         id="stop1283" />
      <stop
         style="stop-color:#fafafa;stop-opacity:0"
         offset="0.70393354"
         id="stop1563" />
      <stop
         style="stop-color:#fafafa;stop-opacity:0.40000001"
         offset="1"
         id="stop1285" />
    </linearGradient>
    <linearGradient
       inkscape:collect="always"
       xlink:href="#linearGradient1287"
       id="linearGradient1289"
       x1="8.4666672"
       y1="0.79375005"
       x2="8.4666672"
       y2="16.139584"
       gradientUnits="userSpaceOnUse" />
    <linearGradient
       inkscape:collect="always"
       xlink:href="#linearGradient12158"
       id="linearGradient12160"
       x1="12.435417"
       y1="11.641667"
       x2="3.4395833"
       y2="7.9375"
       gradientUnits="userSpaceOnUse" />
    <linearGradient
       inkscape:collect="always"
       xlink:href="#linearGradient12471"
       id="linearGradient12473"
       x1="4.2333336"
       y1="5.291667"
       x2="13.758333"
       y2="9.260417"
       gradientUnits="userSpaceOnUse" />
  </defs>
  <g
     inkscape:groupmode="layer"
     id="layer3"
     inkscape:label="shadow">
    <ellipse
       style="fill:#000000;fill-opacity:0.05;stroke-width:0.264582;stroke-linecap:round;stroke-opacity:0.5"
       id="ellipse1493"
       cx="8.598958"
       cy="16.536459"
       rx="5.6847329"
       ry="0.39887646" />
    <ellipse
       style="fill:#000000;fill-opacity:0.05;stroke-width:0.264582;stroke-linecap:round;stroke-opacity:0.5"
       id="ellipse1491"
       cx="8.598958"
       cy="16.536459"
       rx="4.9069662"
       ry="0.39887646" />
    <ellipse
       style="fill:#000000;fill-opacity:0.05;stroke-width:0.264582;stroke-linecap:round;stroke-opacity:0.5"
       id="path1409"
       cx="8.598958"
       cy="16.536459"
       rx="3.0427084"
       ry="0.39887646" />
  </g>
  <g
     inkscape:label="Layer 1"
     inkscape:groupmode="layer"
     id="layer1">
    <path
       id="path848"
       style="fill:#c6262e;fill-opacity:1;stroke-width:0.999999;stroke-linecap:round;stroke-opacity:0.5"
       d="M 32 32 L 17 6.0195312 A 30 30 0 0 0 6.0195312 17 L 32 32 z "
       transform="scale(0.26458333)" />
    <path
       id="path2049"
       style="fill:#a10705;fill-opacity:1;stroke-width:0.999999;stroke-linecap:round;stroke-opacity:0.5"
       d="M 32 32 L 6.0195312 17 A 30 30 0 0 0 2 32 L 32 32 z "
       transform="scale(0.26458333)" />
    <path
       id="path2047"
       style="fill:#f37329;fill-opacity:1;stroke-width:0.999999;stroke-linecap:round;stroke-opacity:0.5"
       d="M 32 32 L 2 32 A 30 30 0 0 0 6.0195312 47 L 32 32 z "
       transform="scale(0.26458333)" />
    <path
       id="path2045"
       style="fill:#ffe16b;fill-opacity:1;stroke-width:0.999999;stroke-linecap:round;stroke-opacity:0.5"
       d="M 32 32 L 6.0195312 47 A 30 30 0 0 0 17 57.980469 L 32 32 z "
       transform="scale(0.26458333)" />
    <path
       id="path2043"
       style="fill:#f9c440;fill-opacity:1;stroke-width:0.999999;stroke-linecap:round;stroke-opacity:0.5"
       d="M 32 32 L 17 57.980469 A 30 30 0 0 0 32 62 L 32 32 z "
       transform="scale(0.26458333)" />
    <path
       id="path2041"
       style="fill:#43d6b5;fill-opacity:1.0;stroke-width:0.999999;stroke-linecap:round;stroke-opacity:0.5"
       d="M 32 32 L 32 62 A 30 30 0 0 0 47 57.980469 L 32 32 z "
       transform="scale(0.26458333)" />
    <path
       id="path2039"
       style="fill:#0e9a83;fill-opacity:1;stroke-width:0.999999;stroke-linecap:round;stroke-opacity:0.5"
       d="M 32 32 L 47 57.980469 A 30 30 0 0 0 57.980469 47 L 32 32 z "
       transform="scale(0.26458333)" />
    <path
       id="path2037"
       style="fill:#64baff;fill-opacity:1;stroke-width:0.999999;stroke-linecap:round;stroke-opacity:0.5"
       d="M 32 32 L 57.980469 47 A 30 30 0 0 0 62 32 L 32 32 z "
       transform="scale(0.26458333)" />
    <path
       id="path2035"
       style="fill:#3689e6;fill-opacity:1;stroke-width:0.999999;stroke-linecap:round;stroke-opacity:0.5"
       d="M 32 32 L 62 32 A 30 30 0 0 0 57.978516 17 L 32 32 z "
       transform="scale(0.26458333)" />
    <path
       id="path2033"
       style="fill:#ad65d6;fill-opacity:1;stroke-width:0.999999;stroke-linecap:round;stroke-opacity:0.5"
       d="M 32 32 L 57.978516 17 A 30 30 0 0 0 47 6.0214844 L 32 32 z "
       transform="scale(0.26458333)" />
    <path
       id="path2031"
       style="fill:#ed5353;fill-opacity:1;stroke-width:0.999999;stroke-linecap:round;stroke-opacity:0.5"
       d="M 32 2 A 30 30 0 0 0 17 6.0195312 L 32 32 L 32 2 z "
       transform="scale(0.26458333)" />
    <path
       id="path2029"
       style="fill:#de3e80;fill-opacity:1;stroke-width:0.999999;stroke-linecap:round;stroke-opacity:0.5"
       d="M 32 2 L 32 32 L 47 6.0214844 A 30 30 0 0 0 32 2 z "
       transform="scale(0.26458333)" />
    <circle
       style="fill:none;fill-opacity:1;stroke:#0e141f;stroke-width:0.264583;stroke-linecap:round;stroke-opacity:0.5"
       id="circle1069"
       cx="8.4666662"
       cy="8.4666662"
       r="7.8052077" />
    <circle
       style="fill:none;fill-opacity:1;stroke:url(#linearGradient1289);stroke-width:0.264583;stroke-linecap:round;stroke-opacity:0.5"
       id="circle1239"
       cx="8.4666662"
       cy="8.4666662"
       r="7.5406246" />
    <ellipse
       style="fill:none;fill-opacity:1;stroke:#fafafa;stroke-width:0.264583;stroke-linecap:round;stroke-opacity:0.5"
       id="path1281"
       cx="8.4666662"
       cy="0.85989583"
       rx="1.8799776e-15"
       ry="0.06614583" />
  </g>
  <g
     inkscape:groupmode="layer"
     id="layer2"
     inkscape:label="arrow">
    <path
       id="path11877"
       style="color:#000000;fill:none;fill-opacity:1;stroke:#000000;stroke-width:0.529167;stroke-linecap:round;stroke-miterlimit:4;stroke-dasharray:none;stroke-opacity:0.1"
       inkscape:transform-center-x="0.92087443"
       inkscape:transform-center-y="1.9841164"
       d="M 3.3072916,6.6145832 1.5875,8.4666666 h 1.05885 c 0,3.2069204 2.613397,5.8203164 5.8203166,5.8203164 2.1483064,0 4.0290374,-1.173604 5.0374184,-2.911967 L 12.36462,10.717175 C 11.588699,12.062546 10.137341,12.9651 8.4666666,12.9651 5.9747033,12.9651 3.96875,10.95863 3.96875,8.4666666 h 1.0583333 z" />
    <path
       id="path11821"
       style="color:#000000;fill:#ffe16b;fill-opacity:1;stroke:#000000;stroke-width:0.264583;stroke-linecap:round;stroke-miterlimit:4;stroke-dasharray:none;stroke-opacity:0.1"
       inkscape:transform-center-x="0.92087443"
       inkscape:transform-center-y="1.9841164"
       d="M 3.3072916,6.6145832 1.5875,8.4666666 h 1.05885 c 0,3.2069204 2.613397,5.8203164 5.8203166,5.8203164 2.1483064,0 4.0290374,-1.173604 5.0374184,-2.911967 L 12.36462,10.717175 C 11.588699,12.062546 10.137341,12.9651 8.4666666,12.9651 5.9747033,12.9651 3.96875,10.95863 3.96875,8.4666666 h 1.0583333 z" />
    <path
       id="circle10068"
       style="color:#000000;fill:url(#linearGradient12160);fill-opacity:1;stroke-width:0.26458333;stroke-linecap:round;stroke:#4d4d4d;stroke-miterlimit:4;stroke-dasharray:none"
       inkscape:transform-center-x="0.92087443"
       inkscape:transform-center-y="1.9841164"
       d="M 3.3072916,6.6145832 1.5875,8.4666666 h 1.05885 c 0,3.2069204 2.613397,5.8203164 5.8203166,5.8203164 2.1483064,0 4.0290374,-1.173604 5.0374184,-2.911967 L 12.36462,10.717175 C 11.588699,12.062546 10.137341,12.9651 8.4666666,12.9651 5.9747033,12.9651 3.96875,10.95863 3.96875,8.4666666 h 1.0583333 z" />
    <path
       id="path12079"
       style="color:#000000;fill:none;fill-opacity:1;stroke:#000000;stroke-width:0.529167;stroke-linecap:round;stroke-miterlimit:4;stroke-dasharray:none;stroke-opacity:0.1"
       inkscape:transform-center-x="0.92087443"
       inkscape:transform-center-y="1.9841164"
       d="m 13.626042,10.318751 1.719792,-1.8520838 h -1.05885 c 0,-3.2069204 -2.613397,-5.8203164 -5.8203168,-5.8203164 -2.1483064,0 -4.0290374,1.173604 -5.0374184,2.911967 l 1.139465,0.657841 c 0.775921,-1.345371 2.227279,-2.247925 3.8979534,-2.247925 2.4919638,0 4.4979168,2.00647 4.4979168,4.4984334 H 11.90625 Z" />
    <path
       id="path12081"
       style="color:#000000;fill:none;fill-opacity:1;stroke:#000000;stroke-width:0.264583;stroke-linecap:round;stroke-miterlimit:4;stroke-dasharray:none;stroke-opacity:0.1"
       inkscape:transform-center-x="0.92087443"
       inkscape:transform-center-y="1.9841164"
       d="m 13.626042,10.318751 1.719792,-1.8520838 h -1.05885 c 0,-3.2069204 -2.613397,-5.8203164 -5.8203168,-5.8203164 -2.1483064,0 -4.0290374,1.173604 -5.0374184,2.911967 l 1.139465,0.657841 c 0.775921,-1.345371 2.227279,-2.247925 3.8979534,-2.247925 2.4919638,0 4.4979168,2.00647 4.4979168,4.4984334 H 11.90625 Z" />
    <path
       id="path12083"
       style="color:#000000;fill:url(#linearGradient12473);fill-opacity:1;stroke-width:0.26458333;stroke-linecap:round;stroke:#4d4d4d;stroke-miterlimit:4;stroke-dasharray:none"
       inkscape:transform-center-x="0.92087443"
       inkscape:transform-center-y="1.9841164"
       d="m 13.626042,10.318751 1.719792,-1.8520838 h -1.05885 c 0,-3.2069204 -2.613397,-5.8203164 -5.8203168,-5.8203164 -2.1483064,0 -4.0290374,1.173604 -5.0374184,2.911967 l 1.139465,0.657841 c 0.775921,-1.345371 2.227279,-2.247925 3.8979534,-2.247925 2.4919638,0 4.4979168,2.00647 4.4979168,4.4984334 H 11.90625 Z" />
  </g>
</svg>
