<?xml version="1.0" encoding="UTF-8" standalone="no"?>
<!-- Created with Inkscape (http://www.inkscape.org/) -->

<svg
   width="128"
   height="128"
   viewBox="0 0 33.866666 33.866668"
   version="1.1"
   id="svg5"
   inkscape:version="1.1 (c68e22c387, 2021-05-23)"
   sodipodi:docname="colormate-final-128.svg"
   xmlns:inkscape="http://www.inkscape.org/namespaces/inkscape"
   xmlns:sodipodi="http://sodipodi.sourceforge.net/DTD/sodipodi-0.dtd"
   xmlns:xlink="http://www.w3.org/1999/xlink"
   xmlns="http://www.w3.org/2000/svg"
   xmlns:svg="http://www.w3.org/2000/svg">
  <sodipodi:namedview
     id="namedview7"
     pagecolor="#505050"
     bordercolor="#eeeeee"
     borderopacity="1"
     inkscape:pageshadow="0"
     inkscape:pageopacity="0"
     inkscape:pagecheckerboard="0"
     inkscape:document-units="mm"
     showgrid="true"
     units="px"
     width="64px"
     inkscape:snap-object-midpoints="true"
     inkscape:snap-text-baseline="false"
     inkscape:snap-center="true"
     inkscape:zoom="7.9999999"
     inkscape:cx="44.375"
     inkscape:cy="107.5625"
     inkscape:window-width="1920"
     inkscape:window-height="1019"
     inkscape:window-x="0"
     inkscape:window-y="30"
     inkscape:window-maximized="1"
     inkscape:current-layer="layer1"
     inkscape:snap-global="true"
     inkscape:snap-smooth-nodes="true">
    <inkscape:grid
       type="xygrid"
       id="grid824"
       spacingx="0.13229167"
       spacingy="0.13229167"
       empspacing="2"
       dotted="true" />
  </sodipodi:namedview>
  <defs
     id="defs2">
    <linearGradient
       inkscape:collect="always"
       id="linearGradient12158">
      <stop
         style="stop-color:#d4d4d4;stop-opacity:1"
         offset="0"
         id="stop12154" />
      <stop
         style="stop-color:#fafafa;stop-opacity:1"
         offset="1"
         id="stop12156" />
    </linearGradient>
    <linearGradient
       inkscape:collect="always"
       id="linearGradient1287">
      <stop
         style="stop-color:#fafafa;stop-opacity:1;"
         offset="0"
         id="stop1283" />
      <stop
         style="stop-color:#fafafa;stop-opacity:0"
         offset="0.70393354"
         id="stop1563" />
      <stop
         style="stop-color:#fafafa;stop-opacity:0.40000001"
         offset="1"
         id="stop1285" />
    </linearGradient>
    <linearGradient
       inkscape:collect="always"
       xlink:href="#linearGradient1287"
       id="linearGradient1289"
       x1="8.4666672"
       y1="0.79375005"
       x2="8.4666672"
       y2="16.139584"
       gradientUnits="userSpaceOnUse"
       gradientTransform="matrix(1.9474228,0,0,1.9474228,0.4451551,0.44515493)" />
    <linearGradient
       inkscape:collect="always"
       xlink:href="#linearGradient12158"
       id="linearGradient12160"
       x1="12.435417"
       y1="11.641667"
       x2="3.4395833"
       y2="7.9375"
       gradientUnits="userSpaceOnUse"
       gradientTransform="matrix(1.9474228,0,0,1.9474228,0.4451551,0.44515493)" />
    <linearGradient
       inkscape:collect="always"
       xlink:href="#linearGradient12158"
       id="linearGradient7026"
       gradientUnits="userSpaceOnUse"
       gradientTransform="matrix(1.9474228,0,0,1.9474228,0.4451551,0.44515493)"
       x1="12.435417"
       y1="11.641667"
       x2="3.4395833"
       y2="7.9375" />
  </defs>
  <g
     inkscape:label="Layer 1"
     inkscape:groupmode="layer"
     id="layer1"
     style="display:inline">
    <path
       id="path848"
       style="fill:#c6262e;fill-opacity:1;stroke-width:0.999999;stroke-linecap:round;stroke-opacity:0.5"
       d="M 35 13.771484 A 58.000005 58.000005 0 0 0 13.771484 35 L 64 64 L 35 13.771484 z "
       transform="scale(0.26458333)" />
    <path
       id="path2049"
       style="fill:#a10705;fill-opacity:1;stroke-width:0.999999;stroke-linecap:round;stroke-opacity:0.5"
       d="M 13.771484 35 A 58.000005 58.000005 0 0 0 6 64 L 64 64 L 13.771484 35 z "
       transform="scale(0.26458333)" />
    <path
       id="path2047"
       style="fill:#f37329;fill-opacity:1;stroke-width:0.999999;stroke-linecap:round;stroke-opacity:0.5"
       d="M 6 64 A 58.000005 58.000005 0 0 0 13.771484 93 L 64 64 L 6 64 z "
       transform="scale(0.26458333)" />
    <path
       id="path2045"
       style="fill:#ffe16b;fill-opacity:1;stroke-width:0.999999;stroke-linecap:round;stroke-opacity:0.5"
       d="M 64 64 L 13.771484 93 A 58.000005 58.000005 0 0 0 35 114.22852 L 64 64 z "
       transform="scale(0.26458333)" />
    <ellipse
       style="fill:#000000;stroke:none;stroke-width:0.264583;stroke-linecap:round;stroke-opacity:0.5;fill-opacity:0.1"
       id="path880"
       cx="16.933334"
       cy="32.411461"
       rx="10.054167"
       ry="0.52916664" />
    <path
       id="path2043"
       style="fill:#f9c440;fill-opacity:1;stroke-width:0.999999;stroke-linecap:round;stroke-opacity:0.5"
       d="M 64 64 L 35 114.22852 A 58.000005 58.000005 0 0 0 64 122 L 64 64 z "
       transform="scale(0.26458333)" />
    <path
       id="path2041"
       style="fill:#43d6b5;fill-opacity:1;stroke-width:0.999999;stroke-linecap:round;stroke-opacity:0.5"
       d="M 64 64 L 64 122 A 58.000005 58.000005 0 0 0 93 114.22852 L 64 64 z "
       transform="scale(0.26458333)" />
    <path
       id="path2039"
       style="fill:#0e9a83;fill-opacity:1;stroke-width:0.999999;stroke-linecap:round;stroke-opacity:0.5"
       d="M 64 64 L 93 114.22852 A 58.000005 58.000005 0 0 0 114.22852 93 L 64 64 z "
       transform="scale(0.26458333)" />
    <path
       id="path2037"
       style="fill:#64baff;fill-opacity:1;stroke-width:0.999999;stroke-linecap:round;stroke-opacity:0.5"
       d="M 64 64 L 114.22852 93 A 58.000005 58.000005 0 0 0 122 64 L 64 64 z "
       transform="scale(0.26458333)" />
    <path
       id="path2035"
       style="fill:#3689e6;fill-opacity:1;stroke-width:0.999999;stroke-linecap:round;stroke-opacity:0.5"
       d="M 114.22461 35 L 64 64 L 122 64 A 58.000005 58.000005 0 0 0 114.22461 35 z "
       transform="scale(0.26458333)" />
    <path
       id="path2033"
       style="fill:#ad65d6;fill-opacity:1;stroke-width:0.999999;stroke-linecap:round;stroke-opacity:0.5"
       d="M 93 13.775391 L 64 64 L 114.22461 35 A 58.000005 58.000005 0 0 0 93 13.775391 z "
       transform="scale(0.26458333)" />
    <path
       id="path2031"
       style="fill:#ed5353;fill-opacity:1;stroke-width:0.999999;stroke-linecap:round;stroke-opacity:0.5"
       d="M 64 6 A 58.000005 58.000005 0 0 0 35 13.771484 L 64 64 L 64 6 z "
       transform="scale(0.26458333)" />
    <path
       id="path2029"
       style="fill:#de3e80;fill-opacity:1;stroke-width:0.999999;stroke-linecap:round;stroke-opacity:0.5"
       d="M 64 6 L 64 64 L 93 13.775391 A 58.000005 58.000005 0 0 0 64 6 z "
       transform="scale(0.26458333)" />
    <circle
       style="fill:none;fill-opacity:1;stroke:#0e141f;stroke-width:0.264583;stroke-linecap:round;stroke-opacity:0.5"
       id="circle1069"
       cx="16.933334"
       cy="16.933334"
       r="15.213543" />
    <circle
       style="fill:none;fill-opacity:1;stroke:url(#linearGradient1289);stroke-width:0.264583;stroke-linecap:round;stroke-opacity:0.5"
       id="circle1239"
       cx="16.933334"
       cy="16.933334"
       r="14.948959" />
    <ellipse
       style="fill:none;fill-opacity:1;stroke:#fafafa;stroke-width:0.264583;stroke-linecap:round;stroke-opacity:0.5"
       id="path1281"
       cx="8.4666662"
       cy="0.85989583"
       rx="1.8799776e-15"
       ry="0.06614583" />
    <ellipse
       style="fill:#000000;fill-opacity:0.1;stroke:none;stroke-width:0.264583;stroke-linecap:round;stroke-opacity:0.5"
       id="ellipse1024"
       cx="16.933334"
       cy="32.411461"
       rx="5.291666"
       ry="0.52916664" />
    <ellipse
       style="fill:#000000;fill-opacity:0.1;stroke:none;stroke-width:0.264582;stroke-linecap:round;stroke-opacity:0.5"
       id="ellipse1026"
       cx="16.933334"
       cy="32.411461"
       rx="12.7"
       ry="0.52916664" />
  </g>
  <g
     inkscape:groupmode="layer"
     id="layer2"
     inkscape:label="arrow"
     style="display:inline">
    <g
       id="g7014"
       inkscape:transform-center-x="1.5977008"
       inkscape:transform-center-y="3.7289214">
      <path
         id="path6543"
         style="color:#000000;fill:none;fill-opacity:1;stroke:#000000;stroke-width:0.79375;stroke-linecap:round;stroke-miterlimit:4;stroke-dasharray:none;stroke-opacity:0.1"
         inkscape:transform-center-x="1.7933319"
         inkscape:transform-center-y="3.8639134"
         d="m 7.1233485,13.12163 -3.4395834,3.704167 h 2.1166667 c 0,6.24523 5.1318542,11.377083 11.3770832,11.377083 4.183661,0 7.846241,-2.327968 9.809986,-5.713296 L 24.850432,21.05913 c -1.511047,2.620007 -4.419408,4.497917 -7.672917,4.497917 -4.852906,0 -8.7312498,-3.878344 -8.7312498,-8.73125 h 2.1166668 z"
         sodipodi:nodetypes="cccsccsccc" />
      <path
         id="path6599"
         style="color:#000000;fill:none;fill-opacity:1;stroke:#000000;stroke-width:1.32292;stroke-linecap:round;stroke-miterlimit:4;stroke-dasharray:none;stroke-opacity:0.1"
         inkscape:transform-center-x="1.7933319"
         inkscape:transform-center-y="3.8639134"
         d="m 7.1233485,13.12163 -3.4395834,3.704167 h 2.1166667 c 0,6.24523 5.1318542,11.377083 11.3770832,11.377083 4.183661,0 7.846241,-2.327968 9.809986,-5.713296 L 24.850432,21.05913 c -1.511047,2.620007 -4.419408,4.497917 -7.672917,4.497917 -4.852906,0 -8.7312498,-3.878344 -8.7312498,-8.73125 h 2.1166668 z"
         sodipodi:nodetypes="cccsccsccc" />
      <g
         id="g6922"
         inkscape:transform-center-x="-0.063346061"
         inkscape:transform-center-y="3.7289214">
        <path
           id="circle10068"
           style="color:#000000;fill:url(#linearGradient12160);fill-opacity:1;stroke:#4d4d4d;stroke-width:0.264583;stroke-linecap:round;stroke-miterlimit:4;stroke-dasharray:none"
           inkscape:transform-center-x="1.7933319"
           inkscape:transform-center-y="3.8639134"
           d="m 7.1233485,13.12163 -3.4395834,3.704167 h 2.1166667 c 0,6.24523 5.1318542,11.377083 11.3770832,11.377083 4.183661,0 7.846241,-2.327968 9.809986,-5.713296 L 24.850432,21.05913 c -1.511047,2.620007 -4.419408,4.497917 -7.672917,4.497917 -4.852906,0 -8.7312498,-3.878344 -8.7312498,-8.73125 h 2.1166668 z"
           sodipodi:nodetypes="cccsccsccc" />
      </g>
    </g>
    <g
       id="g7024"
       inkscape:transform-center-x="-1.6027885"
       inkscape:transform-center-y="-3.719988"
       transform="rotate(-179.89295,16.933334,16.933334)">
      <path
         id="path7016"
         style="color:#000000;fill:none;fill-opacity:1;stroke:#000000;stroke-width:0.79375;stroke-linecap:round;stroke-miterlimit:4;stroke-dasharray:none;stroke-opacity:0.1"
         inkscape:transform-center-x="1.7933319"
         inkscape:transform-center-y="3.8639134"
         d="m 7.1233485,13.12163 -3.4395834,3.704167 h 2.1166667 c 0,6.24523 5.1318542,11.377083 11.3770832,11.377083 4.183661,0 7.846241,-2.327968 9.809986,-5.713296 L 24.850432,21.05913 c -1.511047,2.620007 -4.419408,4.497917 -7.672917,4.497917 -4.852906,0 -8.7312498,-3.878344 -8.7312498,-8.73125 h 2.1166668 z"
         sodipodi:nodetypes="cccsccsccc" />
      <path
         id="path7018"
         style="color:#000000;fill:none;fill-opacity:1;stroke:#000000;stroke-width:1.32292;stroke-linecap:round;stroke-miterlimit:4;stroke-dasharray:none;stroke-opacity:0.1"
         inkscape:transform-center-x="1.7933319"
         inkscape:transform-center-y="3.8639134"
         d="m 7.1233485,13.12163 -3.4395834,3.704167 h 2.1166667 c 0,6.24523 5.1318542,11.377083 11.3770832,11.377083 4.183661,0 7.846241,-2.327968 9.809986,-5.713296 L 24.850432,21.05913 c -1.511047,2.620007 -4.419408,4.497917 -7.672917,4.497917 -4.852906,0 -8.7312498,-3.878344 -8.7312498,-8.73125 h 2.1166668 z"
         sodipodi:nodetypes="cccsccsccc" />
      <g
         id="g7022"
         inkscape:transform-center-x="-0.063346061"
         inkscape:transform-center-y="3.7289214">
        <path
           id="path7020"
           style="color:#000000;fill:url(#linearGradient7026);fill-opacity:1;stroke:#4d4d4d;stroke-width:0.264583;stroke-linecap:round;stroke-miterlimit:4;stroke-dasharray:none"
           inkscape:transform-center-x="1.7933319"
           inkscape:transform-center-y="3.8639134"
           d="m 7.1233485,13.12163 -3.4395834,3.704167 h 2.1166667 c 0,6.24523 5.1318542,11.377083 11.3770832,11.377083 4.183661,0 7.846241,-2.327968 9.809986,-5.713296 L 24.850432,21.05913 c -1.511047,2.620007 -4.419408,4.497917 -7.672917,4.497917 -4.852906,0 -8.7312498,-3.878344 -8.7312498,-8.73125 h 2.1166668 z"
           sodipodi:nodetypes="cccsccsccc" />
      </g>
    </g>
  </g>
</svg>
